# 3ds Max Wavefront OBJ Exporter v0.97b - (c)2007 guruware
# File Created: 17.06.2021 19:05:40

mtllib taula_01.mtl

#
# object taula
#

v  -300.0000 -0.0000 737.0260
v  -300.0000 -0.0001 637.0255
v  -200.0000 -0.0001 637.0255
v  -200.0000 -0.0000 737.0260
v  -300.0000 1050.0000 737.0260
v  -200.0000 1050.0000 737.0260
v  -200.0000 1050.0000 637.0254
v  -300.0000 1050.0000 637.0254
v  -300.0000 950.0000 737.0260
v  -200.0000 950.0000 737.0260
v  300.0000 950.0000 737.0260
v  300.0000 950.0000 637.0255
v  300.0000 1050.0000 637.0254
v  300.0000 1050.0000 737.0260
v  300.0000 950.0000 -762.9744
v  200.0000 950.0000 -762.9744
v  200.0000 1050.0000 -762.9745
v  300.0000 1050.0000 -762.9745
v  -300.0000 950.0000 -762.9744
v  -300.0000 950.0000 -662.9745
v  -300.0000 1050.0000 -662.9745
v  -300.0000 1050.0000 -762.9745
v  -300.0000 949.9999 637.0255
v  -200.0000 950.0000 -662.9745
v  -200.0000 949.9999 637.0255
v  300.0000 1050.0000 -662.9745
v  200.0000 1050.0000 -662.9745
v  200.0000 1050.0000 637.0254
v  300.0000 950.0000 -662.9745
v  -300.0000 0.0000 -662.9745
v  -300.0000 0.0000 -762.9744
v  -200.0000 0.0000 -762.9744
v  -200.0000 0.0000 -662.9745
v  200.0000 950.0000 637.0255
v  200.0000 950.0000 737.0260
v  200.0000 1050.0000 737.0222
v  -200.0000 950.0000 -762.9744
v  -200.0000 1050.0000 -762.9745
v  200.0000 950.0000 -662.9745
v  -200.0000 1050.0000 -662.9745
v  200.0000 0.0000 637.0255
v  300.0000 0.0000 637.0255
v  300.0000 0.0000 737.0260
v  200.0000 0.0000 737.0260
v  200.0000 0.0000 -762.9744
v  300.0000 0.0000 -762.9744
v  300.0000 0.0000 -662.9745
v  200.0000 0.0000 -662.9745
# 48 vertices

vn -0.5774 -0.5774 0.5774
vn -0.5774 -0.5774 -0.5774
vn 0.5774 -0.5774 -0.5773
vn 0.5774 -0.5774 0.5774
vn -0.5774 0.5774 0.5774
vn 0.0000 0.7071 0.7071
vn 0.0000 1.0000 -0.0000
vn -0.7071 0.7071 -0.0000
vn -0.7071 0.0000 0.7071
vn 0.3015 -0.3015 0.9045
vn 0.7071 0.0000 0.7071
vn 0.9045 -0.3015 -0.3015
vn 0.7071 0.7071 -0.0000
vn 0.5773 0.5774 0.5774
vn 0.7071 -0.0000 -0.7071
vn -0.3015 -0.3015 -0.9045
vn 0.0000 0.7071 -0.7071
vn 0.5774 0.5774 -0.5774
vn -0.7071 -0.0000 -0.7071
vn -0.9045 -0.3015 0.3015
vn -0.5774 0.5774 -0.5774
vn -0.9045 -0.3015 -0.3015
vn 0.3015 -0.9045 0.3015
vn 0.3015 -0.9045 -0.3015
vn 0.7071 0.7071 0.0000
vn 0.9045 -0.3015 0.3015
vn 0.5774 -0.5774 -0.5774
vn -0.3015 -0.9045 -0.3015
vn -0.3015 -0.3015 0.9045
vn -0.0000 0.7071 0.7071
vn 0.3015 -0.3015 -0.9045
vn -0.3015 -0.9045 0.3015
# 32 vertex normals

vt 1.0000 0.0000 0.0000
vt 1.0000 0.0654 0.0000
vt 0.8116 0.0654 0.0000
vt 0.8116 0.0000 0.0000
vt 0.0000 0.0000 0.0000
vt 0.1884 0.0000 0.0000
vt 0.1884 0.0654 0.0000
vt 0.0000 0.0654 0.0000
vt 0.1884 1.0000 0.0000
vt 0.0000 1.0000 0.0000
vt 0.0654 0.0000 0.0000
vt 0.0654 1.0000 0.0000
vt 0.1921 0.0000 0.0000
vt 0.1921 1.0000 0.0000
vt 0.0891 0.0000 0.0000
vt 0.0891 1.0000 0.0000
vt 1.0000 0.9109 0.0000
vt 0.8116 0.9109 0.0000
vt 0.8079 0.9109 0.0000
vt 0.8079 0.0654 0.0000
vt 0.9109 0.0000 0.0000
vt 0.9109 1.0000 0.0000
vt 0.9346 0.0000 0.0000
vt 1.0000 1.0000 0.0000
vt 0.9346 1.0000 0.0000
vt 0.8116 1.0000 0.0000
vt 0.8079 1.0000 0.0000
vt 0.1921 0.0654 0.0000
vt 0.8079 0.0000 0.0000
vt 0.1921 0.9109 0.0000
vt 0.1884 0.9109 0.0000
vt 0.0000 0.9109 0.0000
# 32 texture coords

o taula
g taula
usemtl wire_184228153
s 2
f 1/1/1 2/2/2 3/3/3 4/4/4 
s 4
f 5/5/5 6/6/6 7/7/7 8/8/8 
s 8
f 9/5/9 10/6/10 6/9/6 5/10/5 
s 16
f 11/5/11 12/11/12 13/12/13 14/10/14 
s 32
f 15/5/15 16/13/16 17/14/17 18/10/18 
s 64
f 19/5/19 20/15/20 21/16/8 22/10/21 
s 2
f 23/2/22 20/17/20 24/18/23 25/3/24 
s 4
f 13/2/13 26/17/25 27/19/7 28/20/7 
s 16
f 12/11/12 29/21/26 26/22/25 13/12/13 
s 64
f 23/23/22 9/1/9 5/24/5 8/25/8 
f 20/15/20 23/23/22 8/25/8 21/16/8 
s 2
f 30/17/1 31/24/2 32/26/27 33/18/4 
s 4
f 26/17/25 18/24/18 17/27/17 27/19/7 
s 16
f 29/21/26 15/1/15 18/24/18 26/22/25 
s 2
f 25/3/24 34/28/28 35/13/29 10/4/10 
s 4
f 6/6/6 36/29/30 28/20/7 7/7/7 
s 8
f 10/6/10 35/29/29 36/27/30 6/9/6 
s 32
f 37/4/31 19/1/19 22/24/21 38/26/17 
s 2
f 24/18/23 39/30/32 34/28/28 25/3/24 
s 4
f 40/31/7 21/32/8 8/8/8 7/7/7 
s 2
f 37/26/31 16/14/16 39/30/32 24/18/23 
s 4
f 38/9/17 22/10/21 21/32/8 40/31/7 
s 32
f 16/13/16 37/4/31 38/26/17 17/14/17 
s 4
f 27/19/7 40/31/7 7/7/7 28/20/7 
f 17/27/17 38/9/17 40/31/7 27/19/7 
s 2
f 41/28/2 42/8/27 43/5/4 44/13/1 
s 4
f 36/29/30 14/1/14 13/2/13 28/20/7 
s 8
f 35/29/29 11/1/11 14/24/14 36/27/30 
s 2
f 39/30/32 29/32/26 12/8/12 34/28/28 
f 45/14/2 46/10/27 47/32/4 48/30/1 
s off
f 9/1/9 23/2/22 2/2/2 1/1/1 
f 23/2/22 25/3/24 3/3/3 2/2/2 
f 25/3/24 10/4/10 4/4/4 3/3/3 
f 10/4/10 9/1/9 1/1/1 4/4/4 
f 19/24/19 37/26/31 32/26/27 31/24/2 
f 37/26/31 24/18/23 33/18/4 32/26/27 
f 24/18/23 20/17/20 30/17/1 33/18/4 
f 20/17/20 19/24/19 31/24/2 30/17/1 
f 11/5/11 35/13/29 44/13/1 43/5/4 
f 35/13/29 34/28/28 41/28/2 44/13/1 
f 34/28/28 12/8/12 42/8/27 41/28/2 
f 12/8/12 11/5/11 43/5/4 42/8/27 
f 15/10/15 29/32/26 47/32/4 46/10/27 
f 29/32/26 39/30/32 48/30/1 47/32/4 
f 39/30/32 16/14/16 45/14/2 48/30/1 
f 16/14/16 15/10/15 46/10/27 45/14/2 
# 46 polygons

